<svg width="21" height="20" viewBox="0 0 21 20" fill="none" xmlns="http://www.w3.org/2000/svg">
<path d="M2.50003 1.66062C2.03979 1.66062 1.6667 2.03372 1.6667 2.49396C1.6667 2.95419 2.03979 3.32729 2.50003 3.32729V1.66062ZM4.41048 2.49396L5.21483 2.27611C5.11645 1.91286 4.78682 1.66062 4.41048 1.66062V2.49396ZM7.51496 13.9566L6.7106 14.1745C6.81916 14.5753 7.20626 14.8351 7.61832 14.7835L7.51496 13.9566ZM17.0672 12.7626L17.1706 13.5895C17.5245 13.5453 17.811 13.2807 17.8832 12.9315L17.0672 12.7626ZM18.5 5.83724L19.3161 6.00608C19.3669 5.76065 19.3045 5.5054 19.1462 5.31106C18.988 5.11671 18.7507 5.00391 18.5 5.00391V5.83724ZM5.31595 5.83724L4.5116 6.05509L5.31595 5.83724ZM2.50003 3.32729H4.41048V1.66062H2.50003V3.32729ZM7.61832 14.7835L17.1706 13.5895L16.9638 11.9357L7.41159 13.1298L7.61832 14.7835ZM17.8832 12.9315L19.3161 6.00608L17.684 5.6684L16.2511 12.5938L17.8832 12.9315ZM3.60612 2.7118L4.5116 6.05509L6.12031 5.6194L5.21483 2.27611L3.60612 2.7118ZM4.5116 6.05509L6.7106 14.1745L8.31931 13.7388L6.12031 5.6194L4.5116 6.05509ZM18.5 5.00391H5.31595V6.67058H18.5V5.00391ZM9.6667 17.0834C9.6667 17.3135 9.48015 17.5 9.25003 17.5V19.1667C10.4006 19.1667 11.3334 18.2339 11.3334 17.0834H9.6667ZM9.25003 17.5C9.01991 17.5 8.83337 17.3135 8.83337 17.0834H7.1667C7.1667 18.2339 8.09944 19.1667 9.25003 19.1667V17.5ZM8.83337 17.0834C8.83337 16.8532 9.01991 16.6667 9.25003 16.6667V15C8.09944 15 7.1667 15.9328 7.1667 17.0834H8.83337ZM9.25003 16.6667C9.48015 16.6667 9.6667 16.8532 9.6667 17.0834H11.3334C11.3334 15.9328 10.4006 15 9.25003 15V16.6667ZM16.3334 17.0834C16.3334 17.3135 16.1468 17.5 15.9167 17.5V19.1667C17.0673 19.1667 18 18.2339 18 17.0834H16.3334ZM15.9167 17.5C15.6866 17.5 15.5 17.3135 15.5 17.0834H13.8334C13.8334 18.2339 14.7661 19.1667 15.9167 19.1667V17.5ZM15.5 17.0834C15.5 16.8532 15.6866 16.6667 15.9167 16.6667V15C14.7661 15 13.8334 15.9328 13.8334 17.0834H15.5ZM15.9167 16.6667C16.1468 16.6667 16.3334 16.8532 16.3334 17.0834H18C18 15.9328 17.0673 15 15.9167 15V16.6667Z"/>
</svg>
